# xmcd
#
# Track frame offsets: 
#        150
#        14338
#        34842
#        49617
#        68616
#        91072
#        113274
#        128421
#        151346
#        166732
#        183297
#        198103
#        216282
#        232390
#        252526
#
# Disc length: 3530 seconds
#
# Revision: 0
# Processed by: cddbd v1.5.2PL0 Copyright (c) Steve Scherf et al.
# Submitted via: ExactAudioCopy v1.3
#
DISCID=b90dc80f
DTITLE=Billy Branch and The Sons Of Blue - Roots And Branches
DYEAR=2018
DGENRE=Electric Blues
TTITLE0=Nobody But You
TTITLE1=Mellow Down Easy
TTITLE2=Roller Coaster
TTITLE3=Blue And Lonesome
TTITLE4=Hate To See You Go
TTITLE5=My Babe
TTITLE6=Juke
TTITLE7=Last Night
TTITLE8=Just Your Fool Key To The Highway
TTITLE9=Boom Boom Out Go The Lights
TTITLE10=It's Too Late Brother
TTITLE11=One More Chance With You
TTITLE12=You're So Fine
TTITLE13=Blues With A Feeling
TTITLE14=Remembering Little Walter By Marion Diaz (Little Walter's Dau
TTITLE14=ghter)
EXTD=
EXTT0=
EXTT1=
EXTT2=
EXTT3=
EXTT4=
EXTT5=
EXTT6=
EXTT7=
EXTT8=
EXTT9=
EXTT10=
EXTT11=
EXTT12=
EXTT13=
EXTT14=
PLAYORDER=
